<svg xmlns="http://www.w3.org/2000/svg" width="800" height="500" viewBox="0 0 800 500">
  <rect width="800" height="500" fill="#0d1117"/>
  <rect x="20" y="20" width="760" height="40" rx="8" fill="#161b22"/>
  <text x="40" y="47" font-family="system-ui" font-size="18" font-weight="700" fill="#c9d1d9">Issuez</text>
  <rect x="20" y="70" width="760" height="410" rx="8" fill="#161b22"/>
  <rect x="40" y="90" width="200" height="30" rx="6" fill="#21262d"/>
  <rect x="250" y="90" width="120" height="30" rx="6" fill="#21262d"/>
  <rect x="380" y="90" width="100" height="30" rx="6" fill="#21262d"/>
  <rect x="40" y="140" width="720" height="30" rx="6" fill="#21262d"/>
  <rect x="40" y="180" width="720" height="30" rx="6" fill="#0d1117"/>
  <rect x="40" y="220" width="720" height="30" rx="6" fill="#0d1117"/>
  <rect x="40" y="260" width="720" height="30" rx="6" fill="#0d1117"/>
  <rect x="40" y="300" width="720" height="30" rx="6" fill="#0d1117"/>
  <rect x="40" y="340" width="720" height="30" rx="6" fill="#0d1117"/>
  <rect x="40" y="380" width="720" height="30" rx="6" fill="#0d1117"/>
  <rect x="40" y="420" width="720" height="30" rx="6" fill="#0d1117"/>
  <rect x="60" y="148" width="60" height="14" rx="4" fill="#f85149"/>
  <rect x="140" y="148" width="120" height="14" rx="4" fill="#58a6ff"/>
  <rect x="280" y="148" width="40" height="14" rx="4" fill="#3fb950"/>
  <text x="40" y="50" font-family="system-ui" font-size="12" fill="#8b949e">Cross-repo GitHub Issue Tracker</text>
</svg>
